<svg xmlns="http://www.w3.org/2000/svg" xmlns:xlink="http://www.w3.org/1999/xlink" aria-hidden="true" role="img" class="iconify iconify--logos" width="31.88" height="32" preserveAspectRatio="xMidYMid meet" viewBox="0 0 256 257"><defs><linearGradient id="IconifyId1813088fe1fbc01fb466" x1="-.828%" x2="57.636%" y1="7.652%" y2="78.411%"><stop offset="0%" stop-color="#41D1FF"></stop><stop offset="100%" stop-color="#BD34FE"></stop></linearGradient><linearGradient id="IconifyId1813088fe1fbc01fb467" x1="43.376%" x2="50.316%" y1="2.242%" y2="89.03%"><stop offset="0%" stop-color="#FFEA83"></stop><stop offset="8.333%" stop-color="#FFDD35"></stop><stop offset="100%" stop-color="#FFA800"></stop></linearGradient></defs><path fill="url(#IconifyId1813088fe1fbc01fb466)" d="M255.153 37.938L134.897 252.976c-2.483 4.44-8.862 4.466-11.382.048L.875 37.958c-2.746-4.814 1.371-10.646 6.827-9.67l120.385 21.517a6.537 6.537 0 0 0 2.322-.004l117.867-21.483c5.438-.991 9.574 4.796 6.877 9.62Z"></path><path fill="url(#IconifyId1813088fe1fbc01fb467)" d="M185.432.063L96.44 17.501a3.268 3.268 0 0 0-2.634 3.014l-9.596 108.387a3.268 3.268 0 0 0 3.997 3.457l40.882-7.257c2.326-.413 4.682 1.283 4.013 3.45l-14.05 55.941a3.268 3.268 0 0 0 1.605 4.278l23.625 13.39c1.41.798 3.107-.387 2.756-2.057l-15.6-69.237a3.268 3.268 0 0 1 2.924-3.865l27.882-2.972a3.268 3.268 0 0 1 3.491 2.388l21.423 78.885a3.268 3.268 0 0 0 2.428 2.247l34.785 5.542a3.268 3.268 0 0 0 3.93-2.299l.758-3.478c.946-4.35-1.676-8.64-5.698-7.72l-34.785 5.542a3.268 3.268 0 0 1-3.93-2.299l-12.346-45.442a3.268 3.268 0 0 1 2.581-3.943l25.59-4.38c2.326-.413 4.682 1.283 4.013 3.45l-15.6 69.237a3.268 3.268 0 0 0 1.605 4.278l23.625 13.39c1.41.798 3.107-.387 2.756-2.057L187.423 8.728a3.268 3.268 0 0 0-3.997-3.457Z"></path></svg>
